<svg width="512" height="512" viewBox="0 0 512 512" fill="none" xmlns="http://www.w3.org/2000/svg">
<circle cx="256" cy="256" r="29" fill="#CBFF73"/>
<path d="M190.093 321.407C181.503 312.818 174.69 302.621 170.041 291.398C165.393 280.176 163 268.147 163 256C163 243.853 165.393 231.824 170.041 220.602C174.69 209.379 181.503 199.182 190.093 190.593" stroke="#CBFF73" stroke-width="42"/>
<path d="M131.384 379.725C115.09 363.472 102.167 344.18 93.3519 322.952C84.5365 301.724 80 278.974 80 256C80 233.026 84.5365 210.276 93.3519 189.048C102.167 167.82 115.09 148.528 131.384 132.275" stroke="#CBFF73" stroke-width="42"/>
<path d="M320.907 190.593C329.497 199.182 336.31 209.379 340.959 220.602C345.607 231.824 348 243.853 348 256C348 268.147 345.607 280.176 340.959 291.398C336.31 302.621 329.497 312.818 320.907 321.407" stroke="#CBFF73" stroke-width="42"/>
<path d="M379.616 132.275C395.91 148.528 408.833 167.82 417.648 189.048C426.464 210.276 431 233.026 431 256C431 278.974 426.463 301.724 417.648 322.952C408.833 344.18 395.91 363.472 379.616 379.725" stroke="#CBFF73" stroke-width="42"/>
</svg>
