<svg width="512" height="512" viewBox="0 0 512 512" fill="none" xmlns="http://www.w3.org/2000/svg">
<path d="M340.165 409.822C372.96 394.435 399.977 369.033 417.305 337.31C434.633 305.588 441.375 269.19 436.558 233.394C431.741 197.598 415.614 164.255 390.507 138.205C365.398 112.155 332.614 94.7533 296.907 88.535C261.198 82.3167 224.434 87.6076 191.95 103.636C159.466 119.664 132.958 145.592 116.26 177.649C99.5633 209.705 93.5423 246.229 99.0659 281.923C104.59 317.618 121.373 350.638 146.991 376.189" stroke="#CBFF73" stroke-width="42"/>
<circle cx="29" cy="29" r="29" transform="matrix(-1 0 0 1 295.072 406)" fill="#CBFF73"/>
<path d="M169.072 276.071L149.001 390.072L35 370.001" stroke="#CBFF73" stroke-width="42"/>
</svg>
