<?xml version="1.0" encoding="UTF-8" standalone="no"?>
<!DOCTYPE svg PUBLIC "-//W3C//DTD SVG 1.1//EN" "http://www.w3.org/Graphics/SVG/1.1/DTD/svg11.dtd">
<svg width="100%" height="100%" viewBox="0 0 2588 576" version="1.1" xmlns="http://www.w3.org/2000/svg" xmlns:xlink="http://www.w3.org/1999/xlink" xml:space="preserve" xmlns:serif="http://www.serif.com/" style="fill-rule:evenodd;clip-rule:evenodd;stroke-linejoin:round;stroke-miterlimit:2;">
    <g transform="matrix(1,0,0,1,-63.413958,-61.19375)">
        <g transform="matrix(3.318256,0,0,2.537576,0,0)">
            <g transform="matrix(1.25568,0,0,1.641987,6.394863,3.804484)">
                <g transform="matrix(1,0,0,1,89.0446,51.8285)">
                    <path d="M0,59.189L0,0L51.125,29.523L0,59.189ZM114.059,-17.857C111.754,-26.354 105.273,-32.979 96.633,-35.283C81.367,-39.459 19.586,-39.459 19.586,-39.459C19.586,-39.459 -42.051,-39.459 -57.316,-35.283C-65.813,-32.979 -72.438,-26.354 -74.886,-17.857C-78.918,-2.592 -78.918,29.523 -78.918,29.523C-78.918,29.523 -78.918,61.637 -74.886,77.047C-72.438,85.399 -65.813,92.168 -57.316,94.472C-42.051,98.648 19.586,98.648 19.586,98.648C19.586,98.648 81.367,98.648 96.633,94.472C105.273,92.168 111.754,85.399 114.059,77.047C118.234,61.637 118.234,29.523 118.234,29.523C118.234,29.523 118.234,-2.592 114.059,-17.857" style="fill-rule:nonzero;"/>
                </g>
                <g transform="matrix(1,0,0,1,249.239,21.0094)">
                    <path d="M0,120.971L0,83.168L-22.826,0L-3.024,0L5.185,36.867C7.057,45.365 9.001,57.533 9.865,61.926L10.009,61.926C10.873,57.678 12.745,45.509 14.689,37.012L23.187,0L42.988,0L19.874,83.168L19.874,120.971L0,120.971Z" style="fill-rule:nonzero;"/>
                </g>
                <g transform="matrix(1,0,0,1,320.3777,107.7048)">
                    <path d="M0,-20.305C0,-37.299 -1.584,-42.195 -7.2,-42.195C-12.961,-42.195 -14.689,-37.299 -14.689,-20.305L-14.689,0.001C-14.689,17.57 -12.961,22.034 -7.488,22.034C-1.584,22.034 0,17.57 0,0.001L0,-20.305ZM20.162,-13.536L20.162,-6.48C20.162,24.915 13.249,35.571 -7.345,35.571C-28.515,35.571 -34.851,24.627 -34.851,-6.48L-34.851,-13.536C-34.851,-45.651 -26.643,-55.876 -6.912,-55.876C12.817,-55.876 20.162,-45.22 20.162,-13.536" style="fill-rule:nonzero;"/>
                </g>
                <g transform="matrix(1,0,0,1,348.8864,77.1742)">
                    <path d="M0,42.772L0,-23.618L19.874,-23.618L19.874,40.684C19.874,48.461 21.602,51.917 25.706,51.917C28.803,51.917 31.826,50.549 33.986,44.789L33.986,-23.618L53.86,-23.618L53.86,64.662L37.011,64.662L35.859,52.781L35.787,52.781C33.339,61.206 28.515,66.39 18.506,66.39C5.256,66.39 0,57.894 0,42.772" style="fill-rule:nonzero;"/>
                </g>
                <g transform="matrix(1,0,0,1,416.7107,21.0093)">
                    <path d="M0,120.827L0,16.994L-19.657,16.994L-19.657,0L39.532,0L39.532,16.994L19.874,16.994L19.874,120.827L0,120.827Z" style="fill-rule:nonzero;"/>
                </g>
                <g transform="matrix(1,0,0,1,450.7673,77.1742)">
                    <path d="M0,42.772L0,-23.618L19.874,-23.618L19.874,40.684C19.874,48.461 21.602,51.917 25.706,51.917C28.803,51.917 31.826,50.549 33.986,44.789L33.986,-23.618L53.86,-23.618L53.86,64.662L37.011,64.662L35.859,52.781L35.787,52.781C33.339,61.206 28.515,66.39 18.506,66.39C5.256,66.39 0,57.894 0,42.772" style="fill-rule:nonzero;"/>
                </g>
                <g transform="matrix(1,0,0,1,550.4885,68.8209)">
                    <path d="M0,22.035C0,1.585 -1.728,-2.879 -7.272,-2.879C-11.017,-2.879 -14.618,0.433 -16.057,6.77L-16.057,55.518C-14.33,58.902 -11.305,60.342 -8.137,60.342C-2.16,60.342 0,54.006 0,34.852L0,22.035ZM20.307,22.035L20.307,33.844C20.307,62.359 14.258,74.311 0.864,74.311C-7.272,74.311 -13.393,70.711 -16.561,64.663L-16.633,64.663L-17.929,73.015L-35.211,73.015L-35.211,-52.276L-16.057,-52.276L-16.057,-26.929C-16.057,-20.304 -15.914,-13.68 -16.49,-5.759L-16.274,-5.759C-12.961,-12.384 -7.272,-16.992 1.656,-16.992C14.474,-16.992 20.307,-8.64 20.307,22.035" style="fill-rule:nonzero;"/>
                </g>
                <g transform="matrix(1,0,0,1,598.2219,109.0015)">
                    <path d="M0,-22.754L0,-16.057L13.104,-16.057L13.104,-22.754C13.104,-39.027 12.457,-43.636 6.48,-43.636C0.504,-43.636 0,-38.883 0,-22.754M32.906,-4.968L0,-4.968L0,-0.144C0,15.41 0.359,20.738 6.769,20.738C13.104,20.738 14.545,15.841 14.688,5.761L32.187,6.553C33.482,25.778 23.546,34.275 6.696,34.275C-13.754,34.275 -19.802,20.882 -19.802,-3.456L-19.802,-18.866C-19.802,-44.5 -13.033,-57.029 7.272,-57.029C27.722,-57.029 32.906,-46.372 32.906,-19.73L32.906,-4.968Z" style="fill-rule:nonzero;"/>
                </g>
            </g>
        </g>
    </g>
</svg>
