<svg width="512" height="512" viewBox="0 0 512 512" fill="none" xmlns="http://www.w3.org/2000/svg">
<path d="M125.832 222.374L206.568 166.856L150.736 86" stroke="#CBFF73" stroke-width="42"/>
<path d="M254 257C267.5 201 299.891 154 356.5 154C413.109 154 459 200.115 459 257C459 313.885 413.109 360 356.5 360C327.66 360 304.587 349.099 287.37 331" stroke="#CBFF73" stroke-width="42"/>
<path d="M254 257C240 314.5 207.885 360 151 360C94.1147 360 48 313.885 48 257C48 200.115 94.1147 154 151 154C173.83 154 194.924 161.427 212 173.998" stroke="#CBFF73" stroke-width="42"/>
</svg>
