<svg width="1464" height="841" viewBox="0 0 1464 841" fill="none" xmlns="http://www.w3.org/2000/svg">
<g clip-path="url(#clip0_547_697)">
<path d="M1088.62 513.093L1034.47 10.7084C1034.47 10.7084 1065.32 188.91 970.034 358.889C901.151 481.761 836.366 672.108 986.482 554.906C1136.61 437.704 961.084 416.368 912.68 384.592C863.094 352.036 882.633 302.229 907.655 305.427C932.797 308.638 868.187 503.594 839.793 515.162C802.771 530.238 816.491 413.721 816.491 413.721C816.491 413.721 787.707 568.624 754.798 568.624C721.888 568.624 745.203 401.387 745.203 401.387C745.203 401.387 693.776 636.194 659.522 633.614C615.419 630.295 650.277 409.636 670.152 367.944C633.802 410.55 21.353 863.208 3.21174 826.864C-18.1009 784.205 625.081 355.597 669.507 443.038C735.944 573.784 206.743 1017.91 159.495 758.314C116.239 520.644 392.564 48.262 491.279 7.13445C589.994 -33.9931 554.343 223.723 554.343 223.723" stroke="black" stroke-width="7" stroke-linecap="round" stroke-linejoin="round"/>
<path d="M959.068 272.522C959.068 272.522 1013.22 239.617 1065.32 188.91C1117.42 138.203 1142.09 117.632 1142.09 117.632C1142.09 117.632 1147.7 251.858 1154.2 254.478C1160.7 257.098 1182.99 219.638 1158.31 231.972C1133.64 244.307 1088.4 384.135 1125.4 396.469C1162.42 408.803 1178.87 260.766 1178.87 260.766C1178.87 260.766 1178.42 387.682 1204.46 351.579C1230.5 315.477 1228.22 230.951 1261.13 225.469C1294.04 219.987 1261.93 339.581 1286.71 324.17C1313.27 307.657 1356.17 190.751 1332.42 201.714C1310.15 211.993 1302.7 243.299 1325.11 234.619C1347.51 225.94 1461.29 148.723 1461.29 148.723" stroke="black" stroke-width="7" stroke-linecap="round" stroke-linejoin="round"/>
</g>
<defs>
<clipPath id="clip0_547_697">
<rect width="1464" height="840.999" fill="white"/>
</clipPath>
</defs>
</svg>
